<?xml version="1.0" encoding="utf-8"?>
<!-- Generator: Adobe Illustrator 22.0.0, SVG Export Plug-In . SVG Version: 6.00 Build 0)  -->
<svg version="1.1" id="Layer_2" xmlns="http://www.w3.org/2000/svg" xmlns:xlink="http://www.w3.org/1999/xlink" x="0px" y="0px"
	 viewBox="0 0 576 252" style="enable-background:new 0 0 576 252;" xml:space="preserve">
<style type="text/css">
	.st0{fill:#A61C20;}
	.st1{fill:#8A8A7D;}
	.st2{fill:#FFFFFF;}
	.st3{clip-path:url(#SVGID_2_);fill:#B51D22;}
	.st4{clip-path:url(#SVGID_4_);fill:url(#SVGID_5_);}
	.st5{clip-path:url(#SVGID_7_);fill:url(#SVGID_8_);}
	.st6{clip-path:url(#SVGID_10_);fill:url(#SVGID_11_);}
	.st7{clip-path:url(#SVGID_13_);fill:#FFFFFF;}
	.st8{clip-path:url(#SVGID_15_);fill:url(#SVGID_16_);}
</style>
<path class="st0" d="M75.2,191.1c0,6.4,6.4,3.5,6.4,7.8v3.2H61.5v-4.6h-0.3c-3.1,4.3-7.6,6.7-14.7,6.7c-14.4,0-25.4-13.8-25.4-37.9
	c0-24,10.7-39.7,25.5-39.7c5.5,0,11,2.3,14.2,4.6v-21.8c0-6.4-6.4-3.5-6.4-7.8v-3.2h20.8V191.1z M60.9,140.5c-2-3.1-6-5-10.1-5
	c-9.5,0-13.8,11.2-13.8,30.4c0,22.5,5.5,30.4,13.3,30.4c5.5,0,8.6-2.6,10.5-6.1V140.5z"/>
<path class="st0" d="M138.3,165.4c0,27.8-14.1,38.8-29,38.8c-15,0-29-11-29-38.8c0-27.8,14.1-38.8,29-38.8
	C124.2,126.6,138.3,137.6,138.3,165.4 M122.4,165.4c0-23.5-4.1-32.4-13.1-32.4c-9,0-13.1,8.9-13.1,32.4c0,23.5,4.1,32.4,13.1,32.4
	C118.3,197.8,122.4,189,122.4,165.4"/>
<path class="st0" d="M153.5,178.3c-5.2-3.8-11.6-9.9-11.6-22.9c0-17.4,11.9-28.7,25.4-28.7c6.3,0,11.2,2.6,14.2,4.4
	c-0.5-7.8,3.4-12.7,9-12.7c6.4,0,9.8,3.1,9.8,8.1c0,3.2-2.8,6.2-5.9,6.2c-4.1,0-5-2.6-7-2.6c-0.9,0-1,3-0.8,4.6
	c5.2,6,7.3,12.2,7.3,20.6c0,11.6-7,26.6-26.1,26.6c-3.2,0-5.5-0.5-8-1.2c-1.7,3.2-5.2,7.8-5.2,9c0,0.6,0.3,0.8,0.8,0.8
	c1.1,0,7.2-1.8,14.2-1.8c17.4,0,30.4,7.5,30.4,21.4c0,10.1-9.5,24.8-33.3,24.8c-14.1,0-26-5.5-26-16.1c0-5.7,3.4-8.7,8.7-8.7
	c5,0,8.4,2.8,8.4,6.9c0,2.9-1.4,4.6-1.4,6.7c0,2.6,4,4.7,11.3,4.7c10.9,0,19.7-5.8,19.7-13.9c0-7.8-7.6-12.4-23.1-12.4
	c-12.7,0-19.3,3.7-22.6,3.7c-1.7,0-2.4-0.9-2.4-2.3c0-2.1,1.7-4.6,3.4-7.5L153.5,178.3z M157.8,154.6c0,13.3,3.4,21.6,10.9,21.6
	c7.5,0,10.9-8.3,10.9-21.6c0-13.3-3.4-21.6-10.9-21.6C161.2,133,157.8,141.3,157.8,154.6"/>
<path d="M242.7,195.5c-3.5,6-9.3,8.7-16.7,8.7c-3.5,0-7.8-0.9-10.4-2.9c-3.7-2.6-4.6-6.6-4.6-11.9v-53.3h-7.8v-4.7
	c1.5-3.7,8-3.1,9.4-8c2.9-10.2,4.6-16.6,8.1-18.1l4.6-0.9v24.5H239v7.3h-13.6v57.7c0,1.1,1.2,3.1,4.6,3.1c3.4,0,6-2,8.1-5.7
	L242.7,195.5z"/>
<path d="M264.9,128.7v62.4c0,6.4,6.4,3.5,6.4,7.8v3.2h-27.2v-3.2c0-4.3,6.4-1.4,6.4-7.8v-51.4c0-6.4-6.4-3.5-6.4-7.8v-3.2H264.9z"/>
<path d="M295.5,128.7v6c3.8-3.8,9.6-8.1,18.8-8.1c7.9,0,14.1,4.6,17.3,9.6c5.7-5.8,13.3-9.6,22-9.3c10.9,0.3,18.3,7,18.3,20.5v43.7
	c0,6.4,6.4,3.5,6.4,7.8v3.2h-27.2v-3.2c0-4.3,6.4-1.4,6.4-7.8v-45.3c0-6.1-3.2-10.4-9.8-10.4c-7.2,0-11.6,5.2-14.1,8.4v47.2
	c0,6.4,6.4,3.5,6.4,7.8v3.2h-27.2v-3.2c0-4.3,6.4-1.4,6.4-7.8v-45.3c0-6.1-3.2-10.4-9.8-10.4c-7.2,0-11.6,5.2-14.1,8.4v47.2
	c0,6.4,6.4,3.5,6.4,7.8v3.2h-27.2v-3.2c0-4.3,6.4-1.4,6.4-7.8v-51.4c0-6.4-6.4-3.5-6.4-7.8v-3.2H295.5z"/>
<path d="M392.9,163.3c0,27.4,6.9,33.6,17.1,33.6c11,0,15.3-7.5,19-16.4l6,4c-4.6,12.8-12.7,19.7-25.8,19.7
	c-20,0-32.1-12.8-32.1-38.8c0-23.2,11-38.8,29-38.8c19,0,28.1,14.7,28.1,34.1v2.6H392.9z M418.3,155.9c0-15.3-3.4-22-12.2-22
	c-7.3,0-13.1,6.7-13.1,22H418.3z"/>
<path class="st0" d="M266.1,107.7c0,5.2-4.2,9.4-9.4,9.4c-5.2,0-9.4-4.2-9.4-9.4c0-5.2,4.2-9.4,9.4-9.4
	C261.9,98.4,266.1,102.6,266.1,107.7"/>
<path class="st1" d="M328.8,91l3.2,1.4c-9.3,9-33,18.4-35.4,18.5c-3.1,0.2-5.3,0.9-6.1,3.5c-0.8,2.4,1.5,3.1,1.5,3.1
	c1.7,0.4,3.2,0.5,7.1-1.3c5.8-2.7,17.2-5,42.9-20.9c18.2-3.9,24.7-16.4,33.4-33.7c1.5,14,11.5,23.2,14.1,25.8
	c5.4,5.4,6.3,24.7,3.3,24.6c-3.2-0.1-5.1,3.2-4.1,5.1c1,1.9,6.7,1.3,6.7,1.3c5.8,0.1,6.1-21.9,4.7-31.3c-0.2-1.5-3.7-1.5-7.2-14.1
	c4,7.7,13.1,12.4,18.6,15.8c6.5,4,8.8,24,5.8,23.8c-3.5-0.2-5,3.9-3.6,5.5c1.4,1.6,6.5,0.7,6.5,0.7c8.3-0.8,1.9-33,1.1-33.7
	c-7.4-6.9-12.1-15-11.9-26.7c0.1-7.6-1.8-13-1.8-13c26.4,14.7,42.3-4.2,43.6-25.4c0.9-15.2-4.5,42.5-40.6,18.6
	c-39.1-26-71.3,24.1-80,20.7c-12-4.7-23.5-7.4-23.5-7.4c0-12-5-16.6-10.6-15.5l1.9,15c0,0-2.6-14.6-13.1-11l6.1,14.6
	c0,0-7.2,2.9-6.3,7.5c0.9,4.6-11.2,14.4-11.2,14.4s4.6,3.7,7.5,3.5c2-0.2,10.5-9.8,11.9-10.9c1.4-1.2,3.6,0.8,1.9,3.1
	c-1.8,2.4-8.1,9.7-9,10.6c0,0,3,1.6,4.2,0.7c1.2-0.9,13-13.2,15.4-13.6c8.7-1.2,8.8,9.2,16.1,15.9c-10,8.7-34.5,17.1-37.4,17
	c-3.1-0.2-5,0.8-6.4,3.1c-1.1,1.9,0.3,3.1,0.3,3.1c1.1,0.9,3.2,1.2,7.3-0.2C289.9,107.7,313.6,100.8,328.8,91"/>
<path class="st2" d="M294.8,60.1l-4.3,3c-0.5-0.3-1.6-2-0.9-2.9C289.6,60.1,293,58.9,294.8,60.1"/>
<g>
	<defs>
		<path id="SVGID_1_" d="M445.8,30.8c-5.5,10.1-16,20.3-35.1,7.6c-22.9-15.3-43.5-4.3-58.4,6.7c-10.4,7.7-18,15.4-21.6,14
			c-12-4.7-23.5-7.4-23.5-7.4c0-12-5-16.6-10.6-15.5l1.9,15c0,0-2.6-14.6-13.1-11l6.1,14.6c0,0-7.2,2.9-6.3,7.5
			c0.9,4.6-11.2,14.4-11.2,14.4s4.6,3.7,7.5,3.5c2-0.2,10.5-9.8,11.9-10.9c1.4-1.2,3.6,0.8,1.9,3.1c-1.8,2.4-8.1,9.7-9,10.6
			c0,0,3,1.6,4.2,0.7c1.2-0.9,13-13.2,15.4-13.6c8.7-1.2,8.8,9.2,16.1,15.9c-10,8.7-34.5,17.1-37.4,17c-3.1-0.2-5,0.8-6.4,3.1
			c-1.1,1.9,0.3,3.1,0.3,3.1c1.1,0.9,3.2,1.2,7.3-0.2c4-1.4,27.7-8.3,42.9-18.1l3.2,1.4c-9.3,9-33,18.4-35.4,18.5
			c-3.1,0.2-5.3,0.9-6.1,3.5c-0.8,2.4,1.5,3.1,1.5,3.1c1.7,0.4,3.2,0.5,7.1-1.3c5.8-2.7,17.2-5,42.9-20.9
			c18.2-3.9,24.7-16.4,33.4-33.7c1.5,14,11.5,23.2,14.1,25.8c5.4,5.4,6.3,24.7,3.3,24.6c-3.2-0.1-5.1,3.2-4.1,5.1
			c1,1.9,6.7,1.3,6.7,1.3c5.8,0.1,6.1-21.9,4.7-31.3c-0.2-1.5-3.7-1.5-7.2-14.1c4,7.7,13.1,12.4,18.6,15.8c6.5,4,8.8,24,5.8,23.8
			c-3.5-0.2-5,3.9-3.6,5.5c1.4,1.6,6.5,0.7,6.5,0.7c8.3-0.8,3-33.3,2.3-34.1c-6.7-7.6-13.3-14.6-13.1-26.3c0.1-7.6-1.8-13-1.8-13
			c26.4,14.7,42.3-4.2,43.6-25.4c0.1-1.8,0.1-2.6,0-2.6C451,17.3,449.5,24.1,445.8,30.8"/>
	</defs>
	<clipPath id="SVGID_2_">
		<use xlink:href="#SVGID_1_"  style="overflow:visible;"/>
	</clipPath>
	<path class="st3" d="M325.8,55.2c-10.3,9-12.9,22.9-12.9,22.9l3.6,4.1c5.5-20.7,14.5-25.2,14.5-25.2L325.8,55.2z"/>
</g>
<g>
	<defs>
		<path id="SVGID_3_" d="M375.3,61.5l-0.1,0.3c0.1-0.1,0.1-0.2,0.2-0.3c1.5,14,11.5,23.2,14.1,25.8c0.8,0.8,1.6,2,2.2,3.4l8.5-3.1
			c0-0.2-0.1-0.4-0.1-0.6c-0.2-1.5-3.7-1.5-7.1-14c-6-9-6.5-17.7-6.5-17.7C382.8,55.3,379.4,55.6,375.3,61.5"/>
	</defs>
	<clipPath id="SVGID_4_">
		<use xlink:href="#SVGID_3_"  style="overflow:visible;"/>
	</clipPath>
	
		<linearGradient id="SVGID_5_" gradientUnits="userSpaceOnUse" x1="17.64" y1="233.5815" x2="18.64" y2="233.5815" gradientTransform="matrix(0.6417 -36.6621 -36.6621 -0.6417 8939.6982 888.532)">
		<stop  offset="0" style="stop-color:#8A8A7D"/>
		<stop  offset="0.3635" style="stop-color:#858579"/>
		<stop  offset="0.8111" style="stop-color:#76766D"/>
		<stop  offset="1" style="stop-color:#6D6D66"/>
	</linearGradient>
	<polygon class="st4" points="374.7,90.7 375.3,54.8 400.9,55.2 400.2,91.2 	"/>
</g>
<g>
	<defs>
		<path id="SVGID_6_" d="M322.1,86.1C322.1,86.1,322.1,86.1,322.1,86.1c-3.8,3.4-9.7,6.7-15.7,9.4l3.2,5.2c6.6-2.7,13.5-6,19.3-9.7
			C325.2,89.1,322.1,86.1,322.1,86.1L322.1,86.1z"/>
	</defs>
	<clipPath id="SVGID_7_">
		<use xlink:href="#SVGID_6_"  style="overflow:visible;"/>
	</clipPath>
	
		<linearGradient id="SVGID_8_" gradientUnits="userSpaceOnUse" x1="17.7624" y1="233.5429" x2="18.7623" y2="233.5429" gradientTransform="matrix(18.4666 -11.1624 -11.1624 -18.4666 2587.3137 4609.9385)">
		<stop  offset="0" style="stop-color:#8A8A7D"/>
		<stop  offset="0.4671" style="stop-color:#858578"/>
		<stop  offset="1" style="stop-color:#77776B"/>
	</linearGradient>
	<polygon class="st5" points="299.9,90 322.8,76.1 335.3,96.8 312.4,110.6 	"/>
</g>
<g>
	<defs>
		<path id="SVGID_9_" d="M296.7,36.2l1.9,15c0,0-0.1-0.5-0.3-1.2l0.3,2c3.5-0.8,6.5-0.6,8.8-0.3c-0.2,0-0.3-0.1-0.3-0.1
			c0-10.8-4-15.6-8.9-15.6C297.8,36.1,297.3,36.1,296.7,36.2"/>
	</defs>
	<clipPath id="SVGID_10_">
		<use xlink:href="#SVGID_9_"  style="overflow:visible;"/>
	</clipPath>
	
		<linearGradient id="SVGID_11_" gradientUnits="userSpaceOnUse" x1="17.736" y1="233.7271" x2="18.7361" y2="233.7271" gradientTransform="matrix(0.3252 18.5764 18.5764 -0.3252 -4045.6401 -219.2197)">
		<stop  offset="0" style="stop-color:#8A8A7D"/>
		<stop  offset="0.5197" style="stop-color:#87877B"/>
		<stop  offset="0.8362" style="stop-color:#7F7F73"/>
		<stop  offset="1" style="stop-color:#77776B"/>
	</linearGradient>
	<polygon class="st6" points="307.5,35.9 307.8,52 296.7,52.2 296.4,36.1 	"/>
</g>
<g>
	<defs>
		<path id="SVGID_12_" d="M289.6,60.1c-0.8,0.9,0.3,2.6,0.9,2.9l4.3-3c-0.6-0.4-1.3-0.5-2-0.5C291.2,59.5,289.6,60.1,289.6,60.1"/>
	</defs>
	<clipPath id="SVGID_13_">
		<use xlink:href="#SVGID_12_"  style="overflow:visible;"/>
	</clipPath>
	<path class="st7" d="M292.2,60.4c0.7,1,0.1,2.3-0.6,2.8c-0.8,0.5-1.9,0.1-2.7-0.9c-0.7-1-0.7-2.3,0.1-2.8
		C289.8,59,291.5,59.4,292.2,60.4"/>
</g>
<g>
	<path d="M445.5,198.1c0,2.7-2.1,4.6-4.6,4.6c-2.6,0-4.6-1.9-4.6-4.6c0-2.7,2.1-4.6,4.6-4.6C443.4,193.5,445.5,195.4,445.5,198.1"/>
	<path d="M474.1,194.9c-2.3,5.9-5.1,8.2-10.6,8.2c-7.6,0-13.9-5.3-13.9-18c0-10.7,5.8-19.3,14.5-19.3c6,0,10.1,3.6,10.1,8
		c0,2.3-1.2,4.5-3.9,4.5c-2.2,0-3.7-1.5-3.7-3.6c0-1.6,1-2.9,1-3.7c0-1-1.1-1.7-3-1.7c-4.1,0-7.3,4.1-7.3,15.3c0,10.6,2.8,15,7.3,15
		c3.9,0,5.4-3.1,6.9-6.2L474.1,194.9z"/>
	<path d="M504.3,184.5c0,13.4-6.8,18.6-13.9,18.6c-7.2,0-13.9-5.3-13.9-18.6c0-13.4,6.8-18.6,13.9-18.6
		C497.5,165.9,504.3,171.2,504.3,184.5 M496.6,184.5c0-11.3-2-15.6-6.3-15.6c-4.3,0-6.3,4.3-6.3,15.6c0,11.3,2,15.6,6.3,15.6
		C494.7,200.1,496.6,195.8,496.6,184.5"/>
	<path d="M515.1,166.9v2.9c1.8-1.8,4.6-3.9,9-3.9c3.8,0,6.8,2.2,8.3,4.6c2.7-2.8,6.4-4.6,10.6-4.5c5.2,0.1,8.8,3.4,8.8,9.8v21
		c0,3.1,3.1,1.7,3.1,3.7v1.5h-13.1v-1.5c0-2.1,3.1-0.7,3.1-3.7v-21.7c0-2.9-1.5-5-4.7-5c-3.5,0-5.6,2.5-6.8,4v22.7
		c0,3.1,3.1,1.7,3.1,3.7v1.5h-13.1v-1.5c0-2.1,3.1-0.7,3.1-3.7v-21.7c0-2.9-1.5-5-4.7-5c-3.4,0-5.6,2.5-6.8,4v22.7
		c0,3.1,3.1,1.7,3.1,3.7v1.5h-13.1v-1.5c0-2.1,3.1-0.7,3.1-3.7v-24.7c0-3.1-3.1-1.7-3.1-3.7v-1.5H515.1z"/>
</g>
<g>
	<defs>
		<path id="SVGID_14_" d="M342,95.3c6.6-1.4,11.6-4,15.8-7.4C354.3,81.4,346,72,346,72C349.1,89.2,342,95.3,342,95.3"/>
	</defs>
	<clipPath id="SVGID_15_">
		<use xlink:href="#SVGID_14_"  style="overflow:visible;"/>
	</clipPath>
	
		<linearGradient id="SVGID_16_" gradientUnits="userSpaceOnUse" x1="17.7139" y1="233.4769" x2="18.7141" y2="233.4769" gradientTransform="matrix(13.0802 -15.5883 -15.5883 -13.0802 3748.7073 3424.4128)">
		<stop  offset="0" style="stop-color:#58584F"/>
		<stop  offset="0.16" style="stop-color:#67675D"/>
		<stop  offset="0.4341" style="stop-color:#7A7A6F"/>
		<stop  offset="0.7127" style="stop-color:#868679"/>
		<stop  offset="1" style="stop-color:#8A8A7D"/>
	</linearGradient>
	<polygon class="st8" points="330.5,85.7 348.5,64.2 369.2,81.6 351.3,103.1 	"/>
</g>
<path d="M442.4,127.3c4.2,0,7.7,3.3,7.7,7.7c0,4.4-3.5,7.8-7.7,7.8c-4.2,0-7.8-3.3-7.8-7.8C434.6,130.6,438.1,127.3,442.4,127.3
	 M442.4,141.6c3.6,0,6.3-2.8,6.3-6.6c0-3.7-2.8-6.5-6.3-6.5c-3.6,0-6.4,2.8-6.4,6.5C436,138.7,438.8,141.6,442.4,141.6 M439.3,130.5
	h3.5c2.1,0,3.2,0.8,3.2,2.6c0,1.6-1,2.3-2.4,2.5l2.6,4h-1.5l-2.5-3.9h-1.5v3.9h-1.4V130.5z M440.8,134.5h1.5c1.2,0,2.4-0.1,2.4-1.5
	c0-1.2-1-1.4-2-1.4h-1.9V134.5z"/>
</svg>
