<?xml version="1.0" encoding="utf-8"?>
<!-- Generator: Adobe Illustrator 21.1.0, SVG Export Plug-In . SVG Version: 6.00 Build 0)  -->
<svg version="1.1" id="Layer_1" xmlns="http://www.w3.org/2000/svg" xmlns:xlink="http://www.w3.org/1999/xlink" x="0px" y="0px"
	 viewBox="0 0 288 288" style="enable-background:new 0 0 288 288;" xml:space="preserve">
<style type="text/css">
	.st0{fill:#A61C20;}
</style>
<g>
	<path class="st0" d="M182.4,107.9c0,37.1-18.7,51.7-38.7,51.7c-20,0-38.7-14.7-38.7-51.7c0-37,18.7-51.7,38.7-51.7
		C163.7,56.1,182.4,70.8,182.4,107.9 M161.3,107.9c0-31.4-5.5-43.2-17.5-43.2c-12,0-17.5,11.8-17.5,43.2c0,31.4,5.5,43.2,17.5,43.2
		C155.8,151,161.3,139.2,161.3,107.9"/>
	<g>
		<path class="st0" d="M95.6,144.5c0,8.6,8.6,4.7,8.6,10.5v4.3H77.2v-6.2h-0.4c-4.1,5.7-10.3,9-19.7,9c-19.3,0-34.1-18.5-34.1-50.9
			C23,79,37.4,57.9,57.3,57.9c7.4,0,14.8,3.1,19.1,6.2V34.8c0-8.6-8.6-4.7-8.6-10.5v-4.3h27.9V144.5z M76.3,76.6
			c-2.7-4.1-8-6.8-13.5-6.8c-12.7,0-18.5,15-18.5,40.8c0,30.2,7.4,40.8,17.8,40.8c7.4,0,11.5-3.5,14.2-8.2V76.6z"/>
	</g>
	<g>
		<path class="st0" d="M224.1,138.8c-9.4,0-17.5,2.4-18.9,2.4c-0.6,0-1-0.2-1-1c0-1.6,4.7-7.7,6.9-12c3.3,1,6.3,1.6,10.6,1.6
			c25.4,0,34.8-20,34.8-35.4c0-11.2-2.9-19.5-9.8-27.5c-0.2-2.2-0.1-6.2,1.1-6.2c2.6,0,3.9,3.5,9.4,3.5c4.2,0,7.9-4,7.9-8.2
			c0-6.7-4.5-10.8-13-10.8c-7.5,0-12.6,6.5-12,16.9c-4.1-2.4-10.6-5.9-18.9-5.9c-17.9,0-33.8,15.1-33.8,38.3
			c0,17.3,8.5,25.4,15.5,30.5l-14.5,23.6c-2.2,3.9-4.5,7.1-4.5,10c0,1.8,1,3.1,3.3,3.1c4.5,0,13.2-4.9,30.1-4.9
			c20.6,0,30.7,6.1,30.7,16.5c0,6.5-4.3,11.9-10.8,15.1c4,1.1,7.7,2.8,10.8,5.2c11.7-6.9,16.7-17.8,16.7-26.2
			C264.6,148.8,247.3,138.8,224.1,138.8z M222.9,64.7c10,0,14.5,11,14.5,28.7s-4.5,28.7-14.5,28.7c-10,0-14.5-11-14.5-28.7
			S212.9,64.7,222.9,64.7z"/>
	</g>
	<g>
		<g>
			<path d="M213.3,228.4c0,26.4,6.6,32.5,16.5,32.5c10.6,0,14.8-7.2,18.3-15.8l5.8,3.8c-4.4,12.4-12.3,19-25,19
				c-19.3,0-31-12.4-31-37.5c0-22.4,10.6-37.5,28.1-37.5c18.3,0,27.2,14.2,27.2,32.9v2.5H213.3z M237.8,221.3
				c0-14.8-3.2-21.3-11.8-21.3c-7.1,0-12.7,6.5-12.7,21.3H237.8z"/>
		</g>
		<g>
			<path d="M68.3,259.5c-3.4,5.8-9,8.4-16.1,8.4c-3.4,0-7.5-0.9-10-2.8c-3.5-2.5-4.4-6.3-4.4-11.5v-51.5h-7.5v-4.6
				c1.5-3.5,7.7-3,9.1-7.8c2.8-9.9,4.4-16,7.9-17.5l4.5-0.9V195h13.1v7.1H51.6v55.7c0,1.1,1.2,3,4.4,3c3.2,0,5.8-1.9,7.8-5.5
				L68.3,259.5z"/>
		</g>
		<g>
			<path d="M89.7,195v60.2c0,6.2,6.2,3.4,6.2,7.5v3.1H69.6v-3.1c0-4.1,6.2-1.3,6.2-7.5v-49.6c0-6.2-6.2-3.4-6.2-7.5V195H89.7z"/>
		</g>
		<g>
			<path d="M119.2,195v5.8c3.7-3.7,9.3-7.8,18.2-7.8c7.7,0,13.6,4.4,16.7,9.3c5.5-5.6,12.8-9.3,21.3-9c10.5,0.3,17.7,6.8,17.7,19.8
				v42.2c0,6.2,6.2,3.4,6.2,7.5v3.1h-26.3v-3.1c0-4.1,6.2-1.3,6.2-7.5v-43.7c0-5.9-3.1-10-9.4-10c-6.9,0-11.2,5-13.6,8.1v45.6
				c0,6.2,6.2,3.4,6.2,7.5v3.1H136v-3.1c0-4.1,6.2-1.3,6.2-7.5v-43.7c0-5.9-3.1-10-9.4-10c-6.9,0-11.2,5-13.6,8.1v45.6
				c0,6.2,6.2,3.4,6.2,7.5v3.1H99.1v-3.1c0-4.1,6.2-1.3,6.2-7.5v-49.6c0-6.2-6.2-3.4-6.2-7.5V195H119.2z"/>
		</g>
		<path d="M90.8,174.7c0,5-4,9-9,9c-5,0-9-4-9-9c0-5,4-9,9-9C86.8,165.7,90.8,169.7,90.8,174.7"/>
	</g>
</g>
</svg>
