<?xml version="1.0" encoding="utf-8"?>
<!-- Generator: Adobe Illustrator 21.1.0, SVG Export Plug-In . SVG Version: 6.00 Build 0)  -->
<svg version="1.1" id="Layer_1" xmlns="http://www.w3.org/2000/svg" xmlns:xlink="http://www.w3.org/1999/xlink" x="0px" y="0px"
	 viewBox="0 0 14 14" style="enable-background:new 0 0 14 14;" xml:space="preserve">
<style type="text/css">
	.st0{fill:#A2A2A2;}
</style>
<g>
	<path class="st0" d="M11.1,14H2.9c-1.4,0-2.5-1.1-2.5-2.5v-9C0.4,1.1,1.5,0,2.9,0h8.2c1.4,0,2.5,1.1,2.5,2.5v9
		C13.6,12.9,12.5,14,11.1,14z M2.9,1C2.1,1,1.4,1.7,1.4,2.5v9c0,0.8,0.7,1.5,1.5,1.5h8.2c0.8,0,1.5-0.7,1.5-1.5v-9
		c0-0.8-0.7-1.5-1.5-1.5H2.9z"/>
</g>
<g>
	<g>
		<path class="st0" d="M3.5,7.8L3.5,7.8l4.8,0l-2,2C6.2,9.9,6.2,10,6.2,10.1s0.1,0.3,0.2,0.4l0.3,0.3C6.7,10.9,6.9,11,7,11
			c0.1,0,0.3-0.1,0.4-0.2l3.5-3.5C10.9,7.3,11,7.1,11,7c0-0.1-0.1-0.3-0.2-0.4L7.4,3.2C7.3,3.1,7.2,3,7,3C6.9,3,6.7,3.1,6.6,3.2
			L6.3,3.5C6.2,3.6,6.2,3.7,6.2,3.9c0,0.1,0.1,0.3,0.2,0.4l2,2H3.5C3.2,6.3,3,6.5,3,6.8v0.4C3,7.5,3.3,7.8,3.5,7.8z"/>
	</g>
</g>
</svg>
