<?xml version="1.0" encoding="utf-8"?>
<!-- Generator: Adobe Illustrator 21.1.0, SVG Export Plug-In . SVG Version: 6.00 Build 0)  -->
<svg version="1.1" id="Layer_1" xmlns="http://www.w3.org/2000/svg" xmlns:xlink="http://www.w3.org/1999/xlink" x="0px" y="0px"
	 viewBox="0 0 14 14" style="enable-background:new 0 0 14 14;" xml:space="preserve">
<style type="text/css">
	.st0{fill:none;enable-background:new    ;}
	.st1{fill:#A2A2A2;}
</style>
<path class="st0" d="z"/>
<g>
	<path class="st1" d="M2.9,0h8.2c1.4,0,2.5,1.1,2.5,2.5v9c0,1.4-1.1,2.5-2.5,2.5H2.9c-1.4,0-2.5-1.1-2.5-2.5v-9C0.4,1.1,1.5,0,2.9,0
		z M11.1,13c0.8,0,1.5-0.7,1.5-1.5v-9c0-0.8-0.7-1.5-1.5-1.5H2.9C2.1,1,1.4,1.7,1.4,2.5v9c0,0.8,0.7,1.5,1.5,1.5H11.1z"/>
</g>
<g>
	<g>
		<path class="st1" d="M10.5,6.2L10.5,6.2l-4.8,0l2-2C7.8,4.1,7.8,4,7.8,3.9c0-0.1-0.1-0.3-0.2-0.4L7.4,3.2C7.3,3.1,7.1,3,7,3
			C6.8,3,6.7,3.1,6.6,3.2L3.2,6.6C3.1,6.7,3,6.9,3,7c0,0.1,0.1,0.3,0.2,0.4l3.5,3.5C6.7,10.9,6.8,11,7,11c0.1,0,0.3-0.1,0.4-0.2
			l0.3-0.3c0.1-0.1,0.2-0.2,0.2-0.4c0-0.1-0.1-0.3-0.2-0.4l-2-2h4.8c0.3,0,0.5-0.2,0.5-0.5V6.8C11,6.5,10.7,6.2,10.5,6.2z"/>
	</g>
</g>
</svg>
