<?xml version="1.0" encoding="utf-8"?>
<!-- Generator: Adobe Illustrator 21.1.0, SVG Export Plug-In . SVG Version: 6.00 Build 0)  -->
<svg version="1.1" id="Layer_1" xmlns="http://www.w3.org/2000/svg" xmlns:xlink="http://www.w3.org/1999/xlink" x="0px" y="0px"
	 viewBox="0 0 14 14" style="enable-background:new 0 0 14 14;" xml:space="preserve">
<style type="text/css">
	.st0{fill:#A2A2A2;}
</style>
<g>
	<path class="st0" d="M11.1,14H2.9c-1.4,0-2.5-1.1-2.5-2.5v-9C0.4,1.1,1.6,0,2.9,0h8.1c1.4,0,2.5,1.1,2.5,2.5v9
		C13.6,12.9,12.4,14,11.1,14z M2.9,1C2.1,1,1.4,1.7,1.4,2.5v9c0,0.8,0.7,1.5,1.5,1.5h8.1c0.8,0,1.5-0.7,1.5-1.5v-9
		c0-0.8-0.7-1.5-1.5-1.5H2.9z"/>
</g>
<path id="D" class="st0" d="M3.9,10.5h2.5c1.9,0,3.5-1.6,3.5-3.5S8.3,3.5,6.4,3.5H3.9V10.5z M5.7,5h0.4C7.1,5,8,5.7,8,6.7
	C8,6.8,8,6.9,8,7c0.1,1-0.7,1.9-1.7,2C6.3,9,6.2,9,6.1,9H5.7L5.7,5L5.7,5z"/>
</svg>
