<?xml version="1.0" encoding="utf-8"?>
<!-- Generator: Adobe Illustrator 21.1.0, SVG Export Plug-In . SVG Version: 6.00 Build 0)  -->
<svg version="1.1" id="Layer_1" xmlns="http://www.w3.org/2000/svg" xmlns:xlink="http://www.w3.org/1999/xlink" x="0px" y="0px"
	 viewBox="0 0 14 14" style="enable-background:new 0 0 14 14;" xml:space="preserve">
<style type="text/css">
	.st0{fill:#A2A2A2;}
</style>
<g>
	<path class="st0" d="M11.1,14H2.9c-1.4,0-2.5-1.1-2.5-2.5v-9C0.4,1.1,1.5,0,2.9,0h8.2c1.4,0,2.5,1.1,2.5,2.5v9
		C13.6,12.9,12.5,14,11.1,14z M2.9,1C2.1,1,1.4,1.7,1.4,2.5v9c0,0.8,0.7,1.5,1.5,1.5h8.2c0.8,0,1.5-0.7,1.5-1.5v-9
		c0-0.8-0.7-1.5-1.5-1.5H2.9z"/>
</g>
<g>
	<path class="st0" d="M8.6,10.3L8.2,8.9H5.8l-0.4,1.4H3.3l2.4-7.4h2.7l2.4,7.4H8.6z M7.8,7.2L7.5,6C7.4,5.8,7.3,5.4,7.2,5
		C7.1,4.6,7,4.3,7,4.1c0,0.2-0.1,0.5-0.2,0.8S6.5,6.1,6.2,7.2H7.8z"/>
</g>
</svg>
