<?xml version="1.0" encoding="utf-8"?>
<!-- Generator: Adobe Illustrator 18.1.1, SVG Export Plug-In . SVG Version: 6.00 Build 0)  -->
<svg version="1.1" id="Layer_1" xmlns="http://www.w3.org/2000/svg" xmlns:xlink="http://www.w3.org/1999/xlink" x="0px" y="0px"
	 viewBox="0 0 300 51" enable-background="new 0 0 300 51" xml:space="preserve">
<g>
	<g>
		<path fill="#3F3B3A" d="M265.1,50.5v-30c0-0.3-0.2-0.4-0.5-0.4l-4.3,0c-0.3,0-0.5,0.1-0.5,0.5l0,30c0,0.3,0.2,0.4,0.5,0.4l4.3,0
			C264.9,51,265.1,50.8,265.1,50.5z"/>
		<path fill-rule="evenodd" clip-rule="evenodd" fill="#26B2C2" d="M270.5,0h-13.3c-0.8,0-1.4,0.6-1.4,1.3v8.5
			c0,0.7,0.6,1.3,1.4,1.3h2.5v5.1l7.4-5.1h3.3c0.8,0,1.4-0.6,1.4-1.3V1.3C271.9,0.6,271.3,0,270.5,0z"/>
	</g>
	<path fill="#26B2C2" d="M80.4,24.2c-3.1-3-6.9-4.5-11.5-4.5c-4.6,0-8.5,1.5-11.5,4.5c-3.1,3-4.6,6.7-4.6,11.1
		c0,4.4,1.5,8.1,4.6,11.1c3.1,3,6.9,4.5,11.5,4.5c4.6,0,8.5-1.5,11.5-4.5c3.1-3,4.6-6.7,4.6-11.1C85,31,83.5,27.2,80.4,24.2z
		 M76.7,43.3c-2,2.1-4.7,3.1-7.8,3.1c-3.1,0-5.8-1-7.8-3.1c-2-2.1-3.1-4.8-3.1-8c0-3.3,1-5.9,3.1-8c2-2.1,4.7-3.1,7.8-3.1
		c3.1,0,5.8,1,7.8,3.1c2,2.1,3.1,4.8,3.1,8C79.8,38.6,78.7,41.2,76.7,43.3z"/>
	<path fill="#26B2C2" d="M137.3,49.9h4.3c0.3,0,0.5-0.2,0.5-0.5V31.2c0-3.9-1.1-6.9-3.1-9c-2.1-2-4.9-3.1-8.2-3.1
		c-4.5,0-8.3,2-11.3,5.9l-0.8,1l-0.5-1.2c-1-2.3-2.4-3.8-4.5-4.7l-0.2-0.1c-0.3-0.1-0.6-0.2-0.9-0.3c-0.4-0.1-0.8-0.2-1.2-0.3
		l-0.2,0c-0.4-0.1-0.7-0.1-1.1-0.2c-0.4,0-0.9-0.1-1.4-0.1l-0.1,0c0,0,0,0,0,0c-4.3,0-8,1.8-10.9,5.4l-0.5,0.6v-5.1
		c0-0.3-0.2-0.5-0.5-0.5h-4.3c-0.3,0-0.5,0.2-0.5,0.5l0,29.3c0,0.3,0.2,0.5,0.5,0.5h4.3c0.3,0,0.5-0.2,0.5-0.5l0-16
		c0-3.2,1-5.6,2.8-7.3c1.9-1.6,4.1-2.5,6.6-2.5c0.4,0,0.9,0,1.4,0.1l0.1,0c0.1,0,0.2,0,0.2,0c0.3,0,0.6,0.1,0.9,0.2
		c1.3,0.4,2.3,1.1,3.1,2.1c1.2,1.6,1.8,3.9,1.8,7.1v16.2c0,0.3,0.2,0.5,0.5,0.5h4.3c0.3,0,0.5-0.1,0.5-0.5l0-16.5
		c0.1-3,1.1-5.3,2.9-6.9c1.8-1.6,4-2.4,6.5-2.4c5.4,0,8.1,3.2,8.1,9.5l0,16.2C136.8,49.7,137,49.9,137.3,49.9z"/>
	<path fill="#3F3B3A" d="M299.8,46.2c0.3-0.3,0.3-0.5,0-0.8l-2.2-2.3c-0.2-0.3-0.5-0.3-0.8-0.1l-0.1,0.1l-0.5,0.5
		c-2.4,1.9-4.9,2.9-7.4,2.9c-3.2,0-5.9-1.1-8.1-3.3c-2.2-2.2-3.3-4.8-3.3-8c0-3.1,1.1-5.7,3.4-7.7c2.2-2,4.8-3,7.8-3
		c2.5,0,5,0.9,7.5,2.7l0.3,0.2c0.3,0.2,0.7,0.2,0.9-0.1l2.2-2.7c0.3-0.3,0.3-0.6,0-0.9c-2.7-2.3-5.8-3.6-9.4-3.8
		c-0.4,0-0.9-0.1-1.3-0.1c-4.6,0-8.6,1.5-11.8,4.4c-3.2,2.9-4.8,6.7-4.8,11.3c0,4.6,1.5,8.4,4.6,11.3c3.1,2.9,6.8,4.3,11,4.3
		c1.3,0,2.6-0.1,3.9-0.4c2.7-0.6,5.3-1.9,7.6-3.8L299.8,46.2z"/>
	<path fill="#3F3B3A" d="M230.4,41.7c0-2.8-1-4.8-2.9-6.1c-1-0.7-2-1.2-2.9-1.6c-0.9-0.4-1.9-0.7-2.9-1.1c-1-0.3-2.1-0.6-3.4-0.9
		c-1.4-0.3-2.4-0.7-3.2-1.1c-1.3-0.6-2-1.6-2-2.9c0-1.4,0.6-2.5,1.9-3.2c1.1-0.6,2.6-1,4.3-1c2.2,0,4.3,0.4,6.3,1.3l2.9,1.4
		c0.3,0.2,0.6-0.1,0.7-0.2l1.5-2.7c0.1-0.1,0.1-0.3,0.1-0.4c0-0.1-0.2-0.2-0.3-0.3l-1.6-0.9l-1.5-0.6c-1.5-0.7-3.1-1.2-4.7-1.5
		c-1-0.2-2-0.3-2.9-0.3c-3.5,0-6.4,0.8-8.6,2.5c-2.1,1.6-3.2,3.8-3.2,6.5c0,3.8,3.2,6.6,9.5,8.2c0.2,0,0.4,0.1,0.8,0.3
		c4.6,1.4,6.9,3,6.9,5c0,1.3-0.5,2.4-1.6,3.2c-1,0.8-2.4,1.2-4.1,1.2c-2.7,0-5.5-0.8-8.3-2.4c-0.6-0.3-1.1-0.6-1.6-1l-0.3-0.2
		c-0.1-0.1-0.2-0.1-0.3-0.1c-0.2,0-0.3,0.1-0.5,0.3l-0.1,0.1l-1.7,2.8c-0.3,0.5,0,0.7,0.2,0.9l2,1.2c1,0.5,2.2,1,3.4,1.4
		c1.2,0.4,2.3,0.7,3.5,0.9c1.2,0.2,2.4,0.3,3.5,0.3c3.3,0,6-0.9,8-2.5C229.4,46.7,230.4,44.5,230.4,41.7z"/>
	<path fill="#3F3B3A" d="M163.6,50.4l0-3.3c0-0.3-0.2-0.5-0.5-0.5h-2.9c-1.5-0.1-2.8-0.6-3.6-1.6c-0.9-1-1.4-2.4-1.4-4.1V24.1l7.9,0
		c0.3,0,0.4-0.2,0.4-0.5l0-2.9c0-0.3-0.2-0.5-0.5-0.5h-7.9l0-9.5c0-0.3-0.2-0.4-0.5-0.4l-4.3,0c-0.3,0-0.5,0.1-0.5,0.5v30.1
		c0,3.1,0.9,5.6,2.8,7.4c0.7,0.6,1.4,1.2,2.1,1.6c1.4,0.8,3,1.2,4.7,1.2h3.5C163.4,50.9,163.6,50.8,163.6,50.4z"/>
	<path fill="#3F3B3A" d="M251.5,50.4l0-3.3c0-0.3-0.2-0.5-0.5-0.5h-2.9c-1.6-0.1-2.8-0.6-3.6-1.6c-0.9-1-1.4-2.4-1.4-4.1V24.1l7.9,0
		c0.3,0,0.4-0.2,0.4-0.5l0-2.9c0-0.3-0.2-0.5-0.5-0.5h-7.9l0-9.5c0-0.3-0.2-0.4-0.5-0.4l-4.3,0c-0.3,0-0.5,0.1-0.5,0.5v30.1
		c0,3.1,0.9,5.6,2.8,7.4c0.7,0.6,1.4,1.2,2.1,1.6c1.4,0.8,3,1.2,4.7,1.2h3.5C251.3,50.9,251.5,50.8,251.5,50.4z"/>
	<path fill="#3F3B3A" d="M195.1,50l4.3,0c0.3,0,0.5-0.2,0.5-0.5V20.1c0-0.3-0.2-0.4-0.5-0.4l-4.3,0c-0.3,0-0.5,0.2-0.5,0.5v3.4
		l-1.2-0.9c-2.7-2-6-3-9.7-3l-0.2,0l-0.1,0c-1,0-2,0.1-3,0.3c-3.2,0.6-6,2-8.2,4.3c-3.1,3-4.6,6.7-4.6,11.1c0,4.4,1.5,8.1,4.6,11.1
		c1.6,1.5,3.3,2.7,5.3,3.4c1.7,0.7,3.5,1.1,5.4,1.1c0,0,0.1,0,0.1,0c0.1,0,0.1,0,0.2,0l0.3,0c0.1,0,0.1,0,0.2,0c3.7,0,7-1,9.7-3
		l1.2-0.9v2.5C194.6,49.8,194.8,50,195.1,50z M191.6,43.3c-2,2.1-4.7,3.1-7.8,3.1c-3.1,0-5.8-1-7.8-3.1c-2-2.1-3.1-4.8-3.1-8
		c0-3.2,1-5.9,3.1-8c2-2.1,4.7-3.1,7.8-3.1c3.1,0,5.8,1,7.8,3.1c2,2,3,4.7,3.1,7.9v0.3C194.6,38.6,193.6,41.3,191.6,43.3z"/>
	<path fill="#26B2C2" d="M41.2,49.9h4.2c0.3,0,0.5-0.2,0.5-0.5l0-47.2c0-0.5-0.4-0.5-0.5-0.5h-4.7c-1.1,0-2,0.6-2.6,1.9L23,38.6
		L7.9,3.5C7.3,2.3,6.4,1.7,5.3,1.7H0.4C0.3,1.7,0,1.7,0,2.2v47.2c0,0.4,0.3,0.5,0.5,0.5h4.2c0.3,0,0.5-0.2,0.5-0.5V10.3l14.1,31.9
		c0.6,1.2,1.5,1.8,2.6,1.8H24c1.1,0,2-0.6,2.6-1.9l14.1-31.9v39.2C40.7,49.7,40.9,49.9,41.2,49.9z"/>
</g>
</svg>
